# xmcd
#
# Track frame offsets: 
#        150
#        13072
#        28741
#        40462
#        52529
#        63703
#        78914
#        95419
#        112217
#        128654
#        145024
#        158008
#        172301
#
# Disc length: 2459 seconds
#
# Revision: 3
# Processed by: cddbd v1.5.2PL0 Copyright (c) Steve Scherf et al.
# Submitted via: ExactAudioCopy v1.0b3
#
DISCID=ac09990d
DTITLE=Constanze Grüger Reinhard Horn - Turnzwerge ganz groß
DYEAR=2008
DGENRE=Kinderlieder
TTITLE0=Turnzwerge, Turnzwerge, 1, 2, 3
TTITLE1=Liebe Kinder, sagt Hallo!
TTITLE2=Ich bin ein kleiner Floh
TTITLE3=Das kleine Pferd
TTITLE4=Die vier Räuber
TTITLE5=Im Orient
TTITLE6=Im Zauberland
TTITLE7=Im Zwergenhaus
TTITLE8=Marienkäfer Till
TTITLE9=Waldspaziergang
TTITLE10=Der Frosch
TTITLE11=Wiesenlied
TTITLE12=Skunk-Tanz
EXTD=YEAR: 2008
EXTT0=
EXTT1=
EXTT2=
EXTT3=
EXTT4=
EXTT5=
EXTT6=
EXTT7=
EXTT8=
EXTT9=
EXTT10=
EXTT11=
EXTT12=
PLAYORDER=
